<?xml version="1.0" encoding="iso-8859-1"?>
<!-- Generator: Adobe Illustrator 16.0.0, SVG Export Plug-In . SVG Version: 6.00 Build 0)  -->
<!DOCTYPE svg PUBLIC "-//W3C//DTD SVG 1.1//EN" "http://www.w3.org/Graphics/SVG/1.1/DTD/svg11.dtd">
<svg xmlns="http://www.w3.org/2000/svg" xmlns:xlink="http://www.w3.org/1999/xlink" version="1.1" id="Capa_1" x="0px" y="0px" width="512px" height="512px" viewBox="0 0 48.749 48.748" style="enable-background:new 0 0 48.749 48.748;" xml:space="preserve">
<g>
	<g>
		<path d="M43.421,36.012l-0.48-0.19c0.121-1.06,0.104-2.129-0.05-3.193l0.477-0.206c0.541-0.232,0.959-0.662,1.176-1.209    c0.219-0.548,0.209-1.148-0.024-1.689l-0.857-1.983c-0.468-1.085-1.809-1.621-2.896-1.149l-0.479,0.205    c-0.666-0.84-1.432-1.584-2.29-2.225l0.194-0.486c0.444-1.132-0.11-2.415-1.237-2.86l-2.014-0.799    c-1.11-0.438-2.42,0.134-2.86,1.238l-0.192,0.488c-1.063-0.123-2.137-0.108-3.19,0.044l-0.101-0.232    c0.004-0.005,0.009-0.006,0.013-0.01c0.376-0.404,0.354-1.037-0.05-1.413l-7.122-6.634c-0.404-0.377-1.037-0.354-1.414,0.05    c-0.376,0.404-0.354,1.037,0.05,1.413l5.563,5.183c-0.015,0.006-0.03,0.007-0.044,0.014l-1.988,0.857    c-0.54,0.233-0.957,0.664-1.174,1.211c-0.217,0.548-0.208,1.146,0.026,1.687l0.207,0.479c-0.833,0.662-1.577,1.43-2.22,2.291    L19.955,26.7c-1.111-0.44-2.425,0.132-2.862,1.233l-0.798,2.012c-0.218,0.549-0.209,1.148,0.026,1.689    c0.234,0.541,0.665,0.957,1.208,1.17l0.484,0.193c-0.121,1.062-0.104,2.132,0.049,3.191l-0.478,0.207    c-0.541,0.233-0.958,0.664-1.176,1.211c-0.217,0.548-0.208,1.146,0.025,1.687l0.857,1.989c0.349,0.807,1.143,1.328,2.022,1.328    c0.303,0,0.599-0.063,0.873-0.182l0.48-0.207c0.668,0.844,1.435,1.59,2.289,2.229l-0.188,0.476    c-0.218,0.547-0.211,1.146,0.021,1.688c0.233,0.542,0.664,0.961,1.214,1.18l2.011,0.798c0.26,0.104,0.532,0.154,0.811,0.154    c0.91,0,1.715-0.547,2.05-1.395l0.193-0.484c1.062,0.122,2.138,0.105,3.19-0.043l0.207,0.48c0.469,1.084,1.812,1.617,2.897,1.146    l1.986-0.856c0.541-0.231,0.958-0.662,1.175-1.211c0.217-0.547,0.208-1.146-0.025-1.686l-0.207-0.479    c0.836-0.666,1.58-1.434,2.222-2.295l0.484,0.191c1.11,0.445,2.427-0.129,2.862-1.23l0.801-2.012    c0.217-0.548,0.208-1.146-0.025-1.688C44.399,36.645,43.969,36.227,43.421,36.012z M41.999,40.146    c-0.038,0.095-0.128,0.121-0.263,0.111l-1.226-0.484c-0.446-0.18-0.949-0.014-1.207,0.386c-0.748,1.151-1.694,2.13-2.814,2.905    c-0.392,0.271-0.538,0.781-0.349,1.218l0.52,1.206c0.038,0.088-0.016,0.23-0.104,0.27l-2.068,0.873    c-0.063,0-0.149-0.031-0.188-0.119l-0.519-1.207c-0.188-0.438-0.661-0.681-1.125-0.582c-1.323,0.277-2.71,0.297-4.048,0.055    c-0.473-0.092-0.934,0.172-1.109,0.615l-0.484,1.223c-0.038,0.096-0.126,0.13-0.19,0.13l-2.083-0.812    c-0.066-0.026-0.099-0.074-0.115-0.11c-0.015-0.035-0.027-0.091,0-0.158l0.481-1.214c0.175-0.441,0.014-0.947-0.385-1.207    c-1.14-0.74-2.116-1.689-2.901-2.822c-0.191-0.275-0.502-0.431-0.822-0.431c-0.132,0-0.266,0.026-0.394,0.081l-1.29,0.537    c-0.062,0-0.147-0.032-0.186-0.121L18.272,38.5c-0.038-0.089,0.018-0.23,0.107-0.27l1.205-0.521    c0.437-0.188,0.68-0.659,0.582-1.125c-0.284-1.342-0.305-2.704-0.063-4.049c0.084-0.468-0.172-0.931-0.614-1.106l-1.222-0.486    c-0.063-0.024-0.094-0.071-0.109-0.106c-0.015-0.034-0.028-0.091-0.002-0.155l0.799-2.013c0.037-0.095,0.125-0.125,0.265-0.112    l1.224,0.484c0.441,0.178,0.947,0.014,1.206-0.384c0.754-1.157,1.702-2.136,2.816-2.906c0.392-0.271,0.538-0.78,0.349-1.219    l-0.521-1.206c-0.039-0.088,0.018-0.229,0.105-0.268l2.066-0.873c0.063,0,0.15,0.031,0.188,0.121l0.521,1.208    c0.189,0.438,0.658,0.68,1.126,0.582c1.321-0.283,2.704-0.301,4.046-0.057c0.469,0.091,0.934-0.171,1.108-0.615L33.94,22.2    c0.036-0.091,0.126-0.13,0.265-0.117l2.015,0.8c0.104,0.04,0.153,0.161,0.112,0.264l-0.484,1.219    c-0.177,0.442-0.016,0.948,0.385,1.209c1.146,0.744,2.123,1.692,2.903,2.819c0.271,0.392,0.779,0.539,1.218,0.35l1.285-0.536    c0.062,0,0.149,0.032,0.188,0.124l0.857,1.984c0.027,0.063,0.017,0.121,0.002,0.156s-0.044,0.084-0.11,0.111l-1.204,0.521    c-0.437,0.188-0.68,0.658-0.582,1.123c0.285,1.352,0.307,2.715,0.063,4.051c-0.085,0.47,0.172,0.934,0.615,1.109l1.219,0.481    c0.089,0.036,0.147,0.177,0.112,0.265L41.999,40.146z" fill="#fff"/>
		<path d="M30.477,27.246c-3.948,0-7.16,3.213-7.16,7.161s3.211,7.162,7.16,7.162c3.947,0,7.16-3.214,7.16-7.162    C37.636,30.459,34.423,27.246,30.477,27.246z M30.477,39.569c-2.846,0-5.16-2.315-5.16-5.162s2.314-5.161,5.16-5.161    c2.845,0,5.16,2.314,5.16,5.161C35.636,37.254,33.322,39.569,30.477,39.569z" fill="#fff"/>
		<path d="M23.224,6.084C23.224,2.73,20.495,0,17.14,0s-6.084,2.729-6.084,6.084s2.729,6.084,6.084,6.084    C20.494,12.168,23.224,9.438,23.224,6.084z M17.14,10.168c-2.252,0-4.084-1.832-4.084-4.084S14.889,2,17.14,2    s4.084,1.832,4.084,4.084S19.392,10.168,17.14,10.168z" fill="#fff"/>
		<path d="M11.374,13.705l-7.121,6.634c-0.38,0.354-0.426,0.939-0.105,1.349l5.419,6.908l0.178,17.266    c0.006,0.548,0.452,0.988,1,0.988c0.003,0,0.007,0,0.01,0c0.552-0.006,0.996-0.457,0.99-1.011l-0.182-17.604    c-0.002-0.22-0.077-0.435-0.213-0.606l-5.062-6.453l6.449-6.008c0.404-0.376,0.426-1.009,0.05-1.413    C12.41,13.349,11.776,13.328,11.374,13.705z" fill="#fff"/>
		<path d="M16.14,14.436v8.716c0,0.553,0.448,1,1,1c0.552,0,1-0.447,1-1v-8.716c0-0.553-0.448-1-1-1    C16.587,13.436,16.14,13.884,16.14,14.436z" fill="#fff"/>
	</g>
</g>
<g>
</g>
<g>
</g>
<g>
</g>
<g>
</g>
<g>
</g>
<g>
</g>
<g>
</g>
<g>
</g>
<g>
</g>
<g>
</g>
<g>
</g>
<g>
</g>
<g>
</g>
<g>
</g>
<g>
</g>
</svg>
