<?xml version="1.0" encoding="iso-8859-1"?>
<!-- Generator: Adobe Illustrator 16.0.0, SVG Export Plug-In . SVG Version: 6.00 Build 0)  -->
<!DOCTYPE svg PUBLIC "-//W3C//DTD SVG 1.1//EN" "http://www.w3.org/Graphics/SVG/1.1/DTD/svg11.dtd">
<svg xmlns="http://www.w3.org/2000/svg" xmlns:xlink="http://www.w3.org/1999/xlink" version="1.1" id="Capa_1" x="0px" y="0px" width="512px" height="512px" viewBox="0 0 179.57 179.57" style="enable-background:new 0 0 179.57 179.57;" xml:space="preserve">
<g>
	<path d="M179.57,119.321l-28.473-20.966c8.742-14.457,14.181-31.317,12.478-50.362c-4.816-53.812-71.012-37.974-81.633-7.358   C71.326,10.013,5.134-5.819,0.314,47.993c-6.203,69.224,81.627,109.784,81.627,109.784s10.716-4.959,24.388-14.34l1.903,17.07   l20.179-23.478l17.308,29.968l20.723-11.964l-17.301-29.974L179.57,119.321z M157.487,152.64l-9.368,5.414l-18.648-32.303   l-16.391,19.062l-8.062-72.253l58.546,43.119l-24.719,4.657L157.487,152.64z" fill="#fff"/>
</g>
<g>
</g>
<g>
</g>
<g>
</g>
<g>
</g>
<g>
</g>
<g>
</g>
<g>
</g>
<g>
</g>
<g>
</g>
<g>
</g>
<g>
</g>
<g>
</g>
<g>
</g>
<g>
</g>
<g>
</g>
</svg>
